<?xml version="1.0" standalone="no"?>
<!DOCTYPE svg PUBLIC "-//W3C//DTD SVG 20010904//EN"
 "http://www.w3.org/TR/2001/REC-SVG-20010904/DTD/svg10.dtd">
<svg version="1.0" xmlns="http://www.w3.org/2000/svg"
 width="600.000000pt" height="600.000000pt" viewBox="0 0 600.000000 600.000000"
 preserveAspectRatio="xMidYMid meet">
<metadata>
Created by potrace 1.14, written by Peter Selinger 2001-2017
</metadata>
<g transform="translate(0.000000,600.000000) scale(0.100000,-0.100000)"
fill="#000000" stroke="none">
<path d="M0 3000 l0 -3000 3000 0 3000 0 0 3000 0 3000 -3000 0 -3000 0 0
-3000z m3598 1993 l2 -263 -557 -2 -558 -3 -3 -1457 -2 -1458 -315 0 -315 0 0
1460 0 1460 -555 0 -555 0 0 265 0 265 1428 -2 1427 -3 3 -262z m1662 -963 l0
-280 -615 0 -614 0 -6 -32 c-9 -53 -105 -730 -105 -743 0 -8 49 -14 163 -18
327 -13 578 -82 767 -210 67 -46 176 -154 226 -224 203 -282 242 -736 95
-1084 -72 -168 -215 -344 -364 -447 -407 -281 -1047 -329 -1604 -120 l-53 19
0 266 c0 248 1 265 18 260 9 -4 76 -26 147 -51 223 -76 316 -91 560 -90 183 0
220 3 290 22 118 32 236 95 305 163 211 208 212 631 1 820 -160 144 -448 207
-828 181 -92 -7 -219 -19 -282 -27 -63 -8 -115 -14 -116 -12 -2 1 260 1862
264 1885 1 1 395 2 876 2 l875 0 0 -280z"/>
</g>
</svg>
